<?xml version="1.0" encoding="UTF-8"?>
<svg xmlns="http://www.w3.org/2000/svg" viewBox="0 0 32 32">
  <defs id="defs3051">
    <style type="text/css" id="current-color-scheme">.ColorScheme-Accent { color: #2B616B; } .ColorScheme-Text { color: #fcfcfc; } </style>
  </defs>
 <path style="fill:#20282C;fill-opacity:1;stroke:#AAB4B9" d="M 2 3 L 2 14 L 1 14 L 1 29 L 12 29 L 13 29 L 31 29 L 31 12 L 30 12 L 30 5 L 16 5 L 14 3 L 2 3 z " class="ColorScheme-Accent" stroke-width="0.8" stroke-opacity="0.9" stroke-linejoin="bevel"/>
 <path style="fill-opacity:0.95;fill-rule:evenodd" d="M 2 3 L 2 14 L 11 14 L 13 12 L 30 12 L 30 5 L 16 5 L 14 3 L 2 3 z " fill="#2B616B"/>
 <path style="fill:#AAB4B9;fill-opacity:0.25;fill-rule:evenodd" d="M 14 3 L 15 6 L 30 6 L 30 5 L 16 5 L 14 3 z M 13 12 L 11 14 L 1 14 L 1 15 L 12 15 L 13 12 z "/>
 <path style="fill-opacity:0.2;fill-rule:evenodd" d="M 13 12 L 11 13 L 2 13 L 2 14 L 11 14 L 13 12 z M 1 28 L 1 29 L 31 29 L 31 28 L 1 28 z " class="ColorScheme-Text" fill="#141B1F"/>
</svg>
