<?xml version="1.0" encoding="UTF-8"?>
<svg xmlns="http://www.w3.org/2000/svg" viewBox="0 0 96 96">
  <defs id="defs3051">
    <style type="text/css" id="current-color-scheme">.ColorScheme-Accent { color: #2B616B; } .ColorScheme-Text { color: #fcfcfc; } </style>
  </defs>
 <path style="fill:#20282C" d="M 6 9 L 6 30 L 5 30 L 5 87 L 91 87 L 91 24 L 90 24 L 90 15 L 48 15 L 42 9 L 6 9 z " class="ColorScheme-Accent" stroke="#AAB4B9" stroke-width="2.4" stroke-opacity="0.9" stroke-linejoin="bevel"/>
 <path style="fill-opacity:0.95" d="M 6 9 L 6 30 L 33 30 L 39 24 L 90 24 L 90 15 L 48 15 L 42 9 L 6 9 z " fill="#2B616B"/>
 <path style="fill:#AAB4B9;fill-opacity:0.25" d="M 42 9 L 47 16 L 90 16 L 90 15 L 48 15 L 42 9 z M 39 24 L 33 30 L 5 30 L 5 31 L 34 31 L 39 24 z "/>
 <path style="fill-opacity:0.2;fill-rule:evenodd" d="M 39 24 L 32 29 L 6 29 L 6 30 L 33 30 L 39 24 z M 5 86 L 5 87 L 91 87 L 91 86 L 5 86 z " class="ColorScheme-Text" fill="#141B1F"/>
 <path style="fill:#AAB4B9;fill-opacity:0.9;stroke:none" d="M 47.886719 41 A 15 15 0 0 0 33 56 A 15 15 0 0 0 48 71 A 15 15 0 0 0 63 56 A 15 15 0 0 0 48 41 A 15 15 0 0 0 47.9 41 z M 48 42 A 14 14 0 0 1 62 56 A 14 14 0 0 1 48 70 A 14 14 0 0 1 34 56 A 14 14 0 0 1 48 42 z M 47 44 L 47 57 L 60 57 L 60 56 L 48 56 L 48 44 L 47 44 z " class="ColorScheme-Text"/>
</svg>
